<svg xmlns="http://www.w3.org/2000/svg" viewBox="0 0 512 512"><style>.l .b,.l .k{fill:#1B1E29}.l .f,.l .m{fill:#FFFFFF}.l .fs{fill:none;stroke:#FFFFFF}.d .b,.d .k{fill:#1B1E29}.d .f,.d .m{fill:#FFFFFF}.d .fs{fill:none;stroke:#FFFFFF}.d{display:none}@media (prefers-color-scheme:dark){.l{display:none}.d{display:inline}}</style><g class="l"><g transform="scale(1.02196) translate(4 63.5)"><path class="b" d="M219.938 1.45661C187.089 6.52861 157.798 21.7696 131.353 47.5496C125.531 53.2256 120.431 57.5326 120.019 57.1216C119.608 56.7106 119.421 56.8826 119.605 57.5036C119.788 58.1256 116.955 62.6256 113.31 67.5036C108.054 74.5366 103.338 81.4116 100.845 85.6746C100.748 85.8406 98.558 84.6366 95.977 83.0006C63.912 62.6656 22.437 75.9596 4.33496 112.376C-0.895045 122.897 -1.35704 130.136 2.75596 137.154C6.51596 143.569 12.316 146.874 19.816 146.874C29.296 146.874 34.315 143.401 40.328 132.679C44.182 125.808 52.244 118.3 57.269 116.904C59.287 116.344 62.963 115.893 65.438 115.902C70.254 115.919 78.163 118.953 78.941 121.082C79.2 121.793 77.852 126.199 75.944 130.874C74.036 135.549 71.255 144.601 69.763 150.989L67.051 162.604L58.968 163.175C44.297 164.21 30.321 170.888 20.573 181.52C9.15595 193.971 3.55896 206.979 2.69596 223.063C2.20496 232.221 2.32196 233 4.83396 237.286C9.17096 244.687 18.631 249.019 26.005 246.983C34.988 244.503 40.435 237.965 42.343 227.374C44.658 214.527 52.073 205.403 61.193 204.18L65.279 203.632L65.925 208.503C67.209 218.175 71.152 236.359 73.024 241.238C73.446 242.337 71.973 243.585 67.718 245.733C54.399 252.456 43.941 264.463 38.571 279.198C36.202 285.696 35.954 287.744 35.947 300.874C35.939 313.314 36.271 316.436 38.285 322.849C42.673 336.822 47.095 343.162 54.656 346.321C67.229 351.573 82.395 341.188 82.432 327.3C82.435 326.16 81.313 321.468 79.938 316.874C75.217 301.102 77.231 288.519 85.336 283.132C87.205 281.89 89.087 280.874 89.519 280.874C89.951 280.874 92.601 284.677 95.408 289.325C105.46 305.966 118.631 320.944 134.507 333.788C163.833 357.513 196.209 370.358 232.821 372.795C256.813 374.392 282.626 371.545 301.438 365.227C313.548 361.16 334.571 350.564 346.092 342.722C365.353 329.612 388.941 304.558 398.629 286.921C400.449 283.608 402.346 280.892 402.844 280.886C403.342 280.879 405.303 282.059 407.202 283.508C414.737 289.255 416.465 300.847 411.953 315.374C410.586 319.774 409.461 325.529 409.453 328.164C409.41 342.01 423.549 351.604 436.22 346.325C445.569 342.43 451.797 331.296 455.039 312.682C459.846 285.082 447.8 257.771 425.646 246.043C420.945 243.554 419.487 242.29 419.879 241.043C422.173 233.736 424.712 221.751 425.709 213.52L426.902 203.666L431.188 204.149C440.511 205.2 447.037 213.081 449.916 226.767C451.771 235.59 453.319 238.684 457.874 242.683C465.056 248.989 475.229 248.968 482.916 242.631C490.177 236.646 491.949 228.186 488.938 213.874C482.979 185.545 460.731 165.137 433.669 163.174C426.309 162.64 425.356 162.344 424.989 160.474C423.193 151.309 419.742 138.928 416.773 131.001L413.229 121.54L415.526 119.808C416.789 118.855 419.476 117.58 421.496 116.975C433.466 113.388 444.953 119.416 452.989 133.499C454.519 136.18 456.708 139.446 457.854 140.756C462.626 146.21 473.701 148.505 480.72 145.493C484.642 143.811 489.937 138.377 491.377 134.559C495.43 123.808 488.426 106.861 473.928 92.3366C466.458 84.8546 458.286 79.8156 448.042 76.3766C432.474 71.1506 412.778 73.4796 398.176 82.2726L392.415 85.7416L388.795 80.0576C382.832 70.6926 373.249 58.9076 363.823 49.3456C337.729 22.8756 306.519 6.52561 272.195 1.34461C260.004 -0.495391 232.198 -0.436391 219.938 1.45661Z"/><path class="f" d="M187.038 119.362C209.989 123.753 229.356 141.468 237.387 165.416C240.355 174.267 240.738 176.653 240.832 186.874C240.919 196.313 240.52 199.718 238.606 205.874C235.067 217.26 230.071 225.439 221.403 234.037C196.556 258.686 156.827 258.943 130.829 234.623C123.624 227.883 116.481 217.127 113.349 208.302C110.343 199.829 109.596 181.755 111.837 171.685C115.08 157.109 125.408 140.825 136.879 132.202C153.092 120.014 169.07 115.924 187.038 119.362Z"/><path class="f" d="M335.505 120.814C352.594 126.094 366.83 139.097 375.533 157.374C384.774 176.78 384.513 196.981 374.764 216.874C369.645 227.32 356.959 239.967 346.438 245.114C331.992 252.182 317.624 254.295 303.394 251.445C267.578 244.273 245.468 210.203 252.934 173.689C253.811 169.399 256.503 162.16 259.445 156.181C263.566 147.805 265.867 144.568 272.35 138.024C278.741 131.572 282.015 129.182 289.589 125.438C294.731 122.897 301.863 120.161 305.438 119.358C313.7 117.504 326.853 118.14 335.505 120.814Z"/><path class="k" d="M181.68 161.999C175.218 164.482 167.722 171.582 164.391 178.374C160.742 185.812 160.882 197.223 164.718 205.035C169.777 215.337 179.319 221.842 190.554 222.649C199.281 223.275 205.907 221.056 212.196 215.402C219.382 208.941 222.695 202.155 223.237 192.786C224.041 178.893 218.422 169.02 206.249 162.938C198.686 159.158 189.941 158.824 181.68 161.999Z"/><path class="k" d="M289.938 161.153C284.032 163.566 280.731 165.808 277 169.937C271.071 176.499 269.021 182.012 269.029 191.374C269.034 198.37 269.428 200.138 272.168 205.461C283.968 228.381 314.343 228.53 326.972 205.729C329.676 200.847 329.938 199.535 329.938 190.874C329.938 182.324 329.664 180.909 327.204 176.723C324.074 171.398 317.109 164.917 311.663 162.262C307.106 160.04 294.265 159.385 289.938 161.153Z"/><path class="m" d="M218.968 275.9C225.147 281.248 230.231 283.73 238.565 285.468C250.838 288.027 262.128 284.908 272.941 275.973C279.297 270.721 284.078 270.36 288.515 274.797C292.567 278.849 292.529 284.068 288.404 289.762C286.636 292.203 284.903 293.661 284.25 293.258C283.596 292.853 283.406 293.014 283.795 293.643C285.659 296.659 267.549 306.986 256.901 308.979C248.995 310.459 235.489 309.554 227.438 307.004C219.995 304.647 211.032 299.339 211.96 297.838C212.305 297.281 212.216 296.931 211.762 297.062C208.147 298.102 200.438 287.594 200.438 281.626C200.438 276.104 204.716 271.874 210.3 271.874C213.553 271.874 215.2 272.639 218.968 275.9Z"/></g></g><g class="d"><g transform="scale(0.9588) translate(20.5 80)"><path d="M219.938 1.45661C187.089 6.52861 157.798 21.7696 131.353 47.5496C125.531 53.2256 120.431 57.5326 120.019 57.1216C119.608 56.7106 119.421 56.8826 119.605 57.5036C119.788 58.1256 116.955 62.6256 113.31 67.5036C108.054 74.5366 103.338 81.4116 100.845 85.6746C100.748 85.8406 98.558 84.6366 95.977 83.0006C63.912 62.6656 22.437 75.9596 4.33496 112.376C-0.895045 122.897 -1.35704 130.136 2.75596 137.154C6.51596 143.569 12.316 146.874 19.816 146.874C29.296 146.874 34.315 143.401 40.328 132.679C44.182 125.808 52.244 118.3 57.269 116.904C59.287 116.344 62.963 115.893 65.438 115.902C70.254 115.919 78.163 118.953 78.941 121.082C79.2 121.793 77.852 126.199 75.944 130.874C74.036 135.549 71.255 144.601 69.763 150.989L67.051 162.604L58.968 163.175C44.297 164.21 30.321 170.888 20.573 181.52C9.15595 193.971 3.55896 206.979 2.69596 223.063C2.20496 232.221 2.32196 233 4.83396 237.286C9.17096 244.687 18.631 249.019 26.005 246.983C34.988 244.503 40.435 237.965 42.343 227.374C44.658 214.527 52.073 205.403 61.193 204.18L65.279 203.632L65.925 208.503C67.209 218.175 71.152 236.359 73.024 241.238C73.446 242.337 71.973 243.585 67.718 245.733C54.399 252.456 43.941 264.463 38.571 279.198C36.202 285.696 35.954 287.744 35.947 300.874C35.939 313.314 36.271 316.436 38.285 322.849C42.673 336.822 47.095 343.162 54.656 346.321C67.229 351.573 82.395 341.188 82.432 327.3C82.435 326.16 81.313 321.468 79.938 316.874C75.217 301.102 77.231 288.519 85.336 283.132C87.205 281.89 89.087 280.874 89.519 280.874C89.951 280.874 92.601 284.677 95.408 289.325C105.46 305.966 118.631 320.944 134.507 333.788C163.833 357.513 196.209 370.358 232.821 372.795C256.813 374.392 282.626 371.545 301.438 365.227C313.548 361.16 334.571 350.564 346.092 342.722C365.353 329.612 388.941 304.558 398.629 286.921C400.449 283.608 402.346 280.892 402.844 280.886C403.342 280.879 405.303 282.059 407.202 283.508C414.737 289.255 416.465 300.847 411.953 315.374C410.586 319.774 409.461 325.529 409.453 328.164C409.41 342.01 423.549 351.604 436.22 346.325C445.569 342.43 451.797 331.296 455.039 312.682C459.846 285.082 447.8 257.771 425.646 246.043C420.945 243.554 419.487 242.29 419.879 241.043C422.173 233.736 424.712 221.751 425.709 213.52L426.902 203.666L431.188 204.149C440.511 205.2 447.037 213.081 449.916 226.767C451.771 235.59 453.319 238.684 457.874 242.683C465.056 248.989 475.229 248.968 482.916 242.631C490.177 236.646 491.949 228.186 488.938 213.874C482.979 185.545 460.731 165.137 433.669 163.174C426.309 162.64 425.356 162.344 424.989 160.474C423.193 151.309 419.742 138.928 416.773 131.001L413.229 121.54L415.526 119.808C416.789 118.855 419.476 117.58 421.496 116.975C433.466 113.388 444.953 119.416 452.989 133.499C454.519 136.18 456.708 139.446 457.854 140.756C462.626 146.21 473.701 148.505 480.72 145.493C484.642 143.811 489.937 138.377 491.377 134.559C495.43 123.808 488.426 106.861 473.928 92.3366C466.458 84.8546 458.286 79.8156 448.042 76.3766C432.474 71.1506 412.778 73.4796 398.176 82.2726L392.415 85.7416L388.795 80.0576C382.832 70.6926 373.249 58.9076 363.823 49.3456C337.729 22.8756 306.519 6.52561 272.195 1.34461C260.004 -0.495391 232.198 -0.436391 219.938 1.45661Z" fill="#FFFFFF" stroke="#FFFFFF" stroke-width="33.4" stroke-linejoin="round"/><path class="b" d="M219.938 1.45661C187.089 6.52861 157.798 21.7696 131.353 47.5496C125.531 53.2256 120.431 57.5326 120.019 57.1216C119.608 56.7106 119.421 56.8826 119.605 57.5036C119.788 58.1256 116.955 62.6256 113.31 67.5036C108.054 74.5366 103.338 81.4116 100.845 85.6746C100.748 85.8406 98.558 84.6366 95.977 83.0006C63.912 62.6656 22.437 75.9596 4.33496 112.376C-0.895045 122.897 -1.35704 130.136 2.75596 137.154C6.51596 143.569 12.316 146.874 19.816 146.874C29.296 146.874 34.315 143.401 40.328 132.679C44.182 125.808 52.244 118.3 57.269 116.904C59.287 116.344 62.963 115.893 65.438 115.902C70.254 115.919 78.163 118.953 78.941 121.082C79.2 121.793 77.852 126.199 75.944 130.874C74.036 135.549 71.255 144.601 69.763 150.989L67.051 162.604L58.968 163.175C44.297 164.21 30.321 170.888 20.573 181.52C9.15595 193.971 3.55896 206.979 2.69596 223.063C2.20496 232.221 2.32196 233 4.83396 237.286C9.17096 244.687 18.631 249.019 26.005 246.983C34.988 244.503 40.435 237.965 42.343 227.374C44.658 214.527 52.073 205.403 61.193 204.18L65.279 203.632L65.925 208.503C67.209 218.175 71.152 236.359 73.024 241.238C73.446 242.337 71.973 243.585 67.718 245.733C54.399 252.456 43.941 264.463 38.571 279.198C36.202 285.696 35.954 287.744 35.947 300.874C35.939 313.314 36.271 316.436 38.285 322.849C42.673 336.822 47.095 343.162 54.656 346.321C67.229 351.573 82.395 341.188 82.432 327.3C82.435 326.16 81.313 321.468 79.938 316.874C75.217 301.102 77.231 288.519 85.336 283.132C87.205 281.89 89.087 280.874 89.519 280.874C89.951 280.874 92.601 284.677 95.408 289.325C105.46 305.966 118.631 320.944 134.507 333.788C163.833 357.513 196.209 370.358 232.821 372.795C256.813 374.392 282.626 371.545 301.438 365.227C313.548 361.16 334.571 350.564 346.092 342.722C365.353 329.612 388.941 304.558 398.629 286.921C400.449 283.608 402.346 280.892 402.844 280.886C403.342 280.879 405.303 282.059 407.202 283.508C414.737 289.255 416.465 300.847 411.953 315.374C410.586 319.774 409.461 325.529 409.453 328.164C409.41 342.01 423.549 351.604 436.22 346.325C445.569 342.43 451.797 331.296 455.039 312.682C459.846 285.082 447.8 257.771 425.646 246.043C420.945 243.554 419.487 242.29 419.879 241.043C422.173 233.736 424.712 221.751 425.709 213.52L426.902 203.666L431.188 204.149C440.511 205.2 447.037 213.081 449.916 226.767C451.771 235.59 453.319 238.684 457.874 242.683C465.056 248.989 475.229 248.968 482.916 242.631C490.177 236.646 491.949 228.186 488.938 213.874C482.979 185.545 460.731 165.137 433.669 163.174C426.309 162.64 425.356 162.344 424.989 160.474C423.193 151.309 419.742 138.928 416.773 131.001L413.229 121.54L415.526 119.808C416.789 118.855 419.476 117.58 421.496 116.975C433.466 113.388 444.953 119.416 452.989 133.499C454.519 136.18 456.708 139.446 457.854 140.756C462.626 146.21 473.701 148.505 480.72 145.493C484.642 143.811 489.937 138.377 491.377 134.559C495.43 123.808 488.426 106.861 473.928 92.3366C466.458 84.8546 458.286 79.8156 448.042 76.3766C432.474 71.1506 412.778 73.4796 398.176 82.2726L392.415 85.7416L388.795 80.0576C382.832 70.6926 373.249 58.9076 363.823 49.3456C337.729 22.8756 306.519 6.52561 272.195 1.34461C260.004 -0.495391 232.198 -0.436391 219.938 1.45661Z"/><path class="f" d="M187.038 119.362C209.989 123.753 229.356 141.468 237.387 165.416C240.355 174.267 240.738 176.653 240.832 186.874C240.919 196.313 240.52 199.718 238.606 205.874C235.067 217.26 230.071 225.439 221.403 234.037C196.556 258.686 156.827 258.943 130.829 234.623C123.624 227.883 116.481 217.127 113.349 208.302C110.343 199.829 109.596 181.755 111.837 171.685C115.08 157.109 125.408 140.825 136.879 132.202C153.092 120.014 169.07 115.924 187.038 119.362Z"/><path class="f" d="M335.505 120.814C352.594 126.094 366.83 139.097 375.533 157.374C384.774 176.78 384.513 196.981 374.764 216.874C369.645 227.32 356.959 239.967 346.438 245.114C331.992 252.182 317.624 254.295 303.394 251.445C267.578 244.273 245.468 210.203 252.934 173.689C253.811 169.399 256.503 162.16 259.445 156.181C263.566 147.805 265.867 144.568 272.35 138.024C278.741 131.572 282.015 129.182 289.589 125.438C294.731 122.897 301.863 120.161 305.438 119.358C313.7 117.504 326.853 118.14 335.505 120.814Z"/><path class="k" d="M181.68 161.999C175.218 164.482 167.722 171.582 164.391 178.374C160.742 185.812 160.882 197.223 164.718 205.035C169.777 215.337 179.319 221.842 190.554 222.649C199.281 223.275 205.907 221.056 212.196 215.402C219.382 208.941 222.695 202.155 223.237 192.786C224.041 178.893 218.422 169.02 206.249 162.938C198.686 159.158 189.941 158.824 181.68 161.999Z" transform="translate(192.3915 191.04950000000002) scale(1.35) translate(-192.3915 -191.04950000000002)"/><path class="k" d="M289.938 161.153C284.032 163.566 280.731 165.808 277 169.937C271.071 176.499 269.021 182.012 269.029 191.374C269.034 198.37 269.428 200.138 272.168 205.461C283.968 228.381 314.343 228.53 326.972 205.729C329.676 200.847 329.938 199.535 329.938 190.874C329.938 182.324 329.664 180.909 327.204 176.723C324.074 171.398 317.109 164.917 311.663 162.262C307.106 160.04 294.265 159.385 289.938 161.153Z" transform="translate(299.47950000000003 193.95749999999998) scale(1.35) translate(-299.47950000000003 -193.95749999999998)"/><path class="m" d="M218.968 275.9C225.147 281.248 230.231 283.73 238.565 285.468C250.838 288.027 262.128 284.908 272.941 275.973C279.297 270.721 284.078 270.36 288.515 274.797C292.567 278.849 292.529 284.068 288.404 289.762C286.636 292.203 284.903 293.661 284.25 293.258C283.596 292.853 283.406 293.014 283.795 293.643C285.659 296.659 267.549 306.986 256.901 308.979C248.995 310.459 235.489 309.554 227.438 307.004C219.995 304.647 211.032 299.339 211.96 297.838C212.305 297.281 212.216 296.931 211.762 297.062C208.147 298.102 200.438 287.594 200.438 281.626C200.438 276.104 204.716 271.874 210.3 271.874C213.553 271.874 215.2 272.639 218.968 275.9Z"/></g></g></svg>
