<svg xmlns="http://www.w3.org/2000/svg" viewBox="0 0 712 798" width="712" height="798" role="img"><title>Villow</title><defs><linearGradient id="vm-sm-od-sail" x1="356" y1="0" x2="356" y2="527" gradientUnits="userSpaceOnUse"><stop offset="0" stop-color="#B7FEDC"/><stop offset="1" stop-color="#00DFAB"/></linearGradient><linearGradient id="vm-sm-od-swoosh" x1="356" y1="343" x2="356" y2="798" gradientUnits="userSpaceOnUse"><stop offset="0" stop-color="#00EEC0"/><stop offset="1" stop-color="#00806D"/></linearGradient></defs><path fill="url(#vm-sm-od-swoosh)" d="M470.31 379.11C465.87 380.68 461.41 382.3 456.95 383.96C315.94 436.51 168.87 535.73 76.03 640.96C49.36 671.18 22.16 708.94 12.44 729.23C8.35 737.75 8.01 743.36 11.08 751.15C16.87 765.86 35.43 783.5 53.5 791.5C66.54 797.26 72.41 798.16 94.35 797.76C114.05 797.39 114.71 797.31 124 794.12C137.49 789.47 131.93 792.6 268 712.93C288.84 700.73 378.66 647.68 419.5 623.45C518.53 564.71 543.93 549.63 583 526.45C668.96 475.43 678.12 469.58 688.71 458.97C699.04 448.62 706.57 435.04 710.36 419.89C712.53 411.19 712.57 391.93 710.41 383.6C710.06 382.2 709.66 380.85 709.22 379.53C690 377.49 670.77 375.45 651.54 373.41C646.83 372.62 642.11 371.83 637.4 371.04C635.22 370.73 633.04 370.43 630.86 370.12C629.3 369.93 627.74 369.75 626.17 369.56C624.31 369.44 622.45 369.32 620.58 369.2C617.38 369.09 614.18 368.97 610.98 368.86C607.64 368.8 604.31 368.74 600.97 368.67C597.1 368.64 593.24 368.62 589.38 368.59C584.05 368.61 578.72 368.64 573.39 368.66C568.61 368.76 563.82 368.85 559.04 368.95C555.39 369.09 551.74 369.24 548.09 369.38C545.52 369.58 542.96 369.77 540.39 369.97C534.68 370.53 528.98 371.09 523.27 371.66C517.56 372.34 511.86 373.02 506.16 373.7C500.46 374.5 494.77 375.3 489.07 376.09C482.82 377.1 476.57 378.1 470.31 379.11Z"/><path fill="url(#vm-sm-od-sail)" d="M67.303 2.43084C57.949 4.84784 45.301 10.6158 37.06 16.2218C21.256 26.9738 7.397 46.7878 1.939 66.4348C0.0470001 73.2468 0 78.8559 0 300.185C0 424.908 0.226 526.955 0.503 526.955C0.78 526.955 6.292 523.421 12.753 519.101C60.563 487.137 100.468 464.042 149 440.247C206.885 411.867 263.979 390.381 339.5 368.556C411.252 347.821 477.057 335.135 540.5 329.807C560.115 328.159 616.001 328.184 631 329.847C647.103 331.632 667.078 335.437 676.359 338.487C680.681 339.908 684.404 340.884 684.633 340.656C684.861 340.428 681.999 338.453 678.274 336.268C674.548 334.083 667.225 329.664 662 326.449C635.068 309.878 517.781 239.069 418.5 179.443C356.9 142.448 289.175 101.715 268 88.9248C126.471 3.43884 133.059 7.20084 116.638 2.49484C108.794 0.246844 105.981 -0.0391561 92.138 0.00384388C79.027 0.0448439 75.014 0.436844 67.303 2.43084Z"/></svg>
